<svg data-logo="logo" xmlns="http://www.w3.org/2000/svg" viewBox="0 0 161.11000061035156 41">
        <g style="opacity: 1;" id="logogram" transform="translate(0, 0.5)
    rotate(0 20 20)"><path d="M24 0H16V12.0632C15.9663 14.2434 14.1885 16 12.0005 16H0V24H8.68629C10.808 24 12.8429 23.1571 14.3431 21.6569L21.6569 14.3431C23.1571 12.8429 24 10.808 24 8.68629V0Z" fill="url(#paint0_linear_7697_8782)"></path><path d="M16 40H24V27.9368C24.0337 25.7566 25.8115 24 27.9995 24H40V16H31.3137C29.192 16 27.1571 16.8429 25.6569 18.3431L18.3431 25.6569C16.8429 27.1571 16 29.192 16 31.3137V40Z" fill="url(#paint1_linear_7697_8782)"></path></g>
        <g style="opacity: 1;" id="logotype" transform="translate(46, 6.81201171875)"><path fill="#151514" d="M24.51 27L8.31 27L8.31 1.54L13.52 1.54L13.52 22.68L24.51 22.68L24.51 27ZM30.83 27L25.70 27L25.70 7.89L30.83 7.89L30.83 27ZM28.27 5.40L28.27 5.40Q27.10 5.40 26.28 4.63Q25.46 3.86 25.46 2.77L25.46 2.77Q25.46 1.67 26.28 0.90Q27.10 0.13 28.27 0.13L28.27 0.13Q29.43 0.13 30.26 0.90Q31.09 1.66 31.09 2.77L31.09 2.77Q31.09 3.86 30.26 4.63Q29.43 5.40 28.27 5.40ZM38.04 15.94L38.04 15.94L38.04 27L32.91 27L32.91 7.89L37.75 7.89L37.83 12.66L37.53 12.66Q38.28 10.27 39.81 8.96Q41.34 7.65 43.76 7.65L43.76 7.65Q45.75 7.65 47.22 8.52Q48.69 9.38 49.51 11.00Q50.33 12.61 50.33 14.85L50.33 14.85L50.33 27L45.20 27L45.20 15.74Q45.20 13.96 44.29 12.95Q43.37 11.94 41.75 11.94L41.75 11.94Q40.67 11.94 39.83 12.41Q38.98 12.88 38.51 13.77Q38.04 14.66 38.04 15.94ZM56.39 27L50.96 27L58.36 15.19L58.34 19.19L51.33 7.89L56.87 7.89L58.60 10.92Q59.42 12.39 60.07 13.83Q60.73 15.28 61.42 16.64L61.42 16.64L59.47 16.64Q60.17 15.29 60.82 13.84Q61.47 12.39 62.32 10.92L62.32 10.92L64.12 7.89L69.55 7.89L62.41 19.24L62.41 15.29L69.82 27L64.32 27L62.20 23.39Q61.36 21.94 60.69 20.49Q60.01 19.04 59.31 17.70L59.31 17.70L61.28 17.70Q60.61 19.04 59.97 20.49Q59.33 21.94 58.51 23.39L58.51 23.39L56.39 27ZM81.75 27.34L81.75 27.34Q78.38 27.34 75.69 25.80Q73.00 24.27 71.44 21.34Q69.87 18.42 69.87 14.29L69.87 14.29Q69.87 10.13 71.44 7.20Q73.00 4.27 75.69 2.73Q78.38 1.19 81.75 1.19L81.75 1.19Q85.13 1.19 87.82 2.73Q90.50 4.27 92.06 7.20Q93.63 10.13 93.63 14.29L93.63 14.29Q93.63 18.42 92.06 21.34Q90.50 24.27 87.82 25.80Q85.13 27.34 81.75 27.34ZM81.75 22.71L81.75 22.71Q83.73 22.71 85.21 21.74Q86.69 20.78 87.51 18.89Q88.33 17.00 88.33 14.29L88.33 14.29Q88.33 11.53 87.51 9.65Q86.69 7.76 85.21 6.79Q83.73 5.83 81.75 5.83L81.75 5.83Q79.79 5.83 78.30 6.80Q76.81 7.77 75.99 9.66Q75.17 11.55 75.17 14.29L75.17 14.29Q75.17 17.00 75.99 18.88Q76.81 20.76 78.30 21.74Q79.79 22.71 81.75 22.71ZM104.60 27.38L104.60 27.38Q101.54 27.38 99.27 26.44Q97.01 25.50 95.75 23.65Q94.48 21.80 94.41 19.10L94.41 19.10L99.49 19.10Q99.59 20.39 100.26 21.25Q100.92 22.11 102.03 22.54Q103.15 22.97 104.55 22.97L104.55 22.97Q105.95 22.97 106.98 22.57Q108.02 22.16 108.60 21.43Q109.18 20.69 109.18 19.72L109.18 19.72Q109.18 18.85 108.66 18.26Q108.14 17.67 107.16 17.24Q106.19 16.81 104.79 16.49L104.79 16.49L101.98 15.79Q98.75 15.00 96.92 13.32Q95.10 11.64 95.10 8.87L95.10 8.87Q95.10 6.56 96.34 4.83Q97.57 3.11 99.74 2.15Q101.90 1.19 104.67 1.19L104.67 1.19Q107.49 1.19 109.59 2.16Q111.69 3.13 112.87 4.84Q114.05 6.56 114.08 8.80L114.08 8.80L109.04 8.80Q108.90 7.26 107.73 6.42Q106.56 5.59 104.62 5.59L104.62 5.59Q103.30 5.59 102.36 5.96Q101.42 6.34 100.92 7.00Q100.43 7.67 100.43 8.53L100.43 8.53Q100.43 9.47 101.00 10.09Q101.57 10.71 102.50 11.10Q103.44 11.48 104.51 11.74L104.51 11.74L106.82 12.30Q108.43 12.66 109.81 13.28Q111.19 13.89 112.24 14.79Q113.28 15.69 113.85 16.92Q114.42 18.15 114.42 19.75L114.42 19.75Q114.42 22.06 113.26 23.78Q112.10 25.50 109.90 26.44Q107.69 27.38 104.60 27.38Z"></path></g>
        <defs xmlns="http://www.w3.org/2000/svg">
<linearGradient id="paint0_linear_7697_8782" x1="20" y1="-0.997096" x2="20" y2="33.7931" gradientUnits="userSpaceOnUse">
<stop stop-color="#FDE801"></stop>
<stop offset="1" stop-color="#FDE801"></stop>
</linearGradient>
<linearGradient id="paint1_linear_7697_8782" x1="20" y1="-0.997096" x2="20" y2="33.7931" gradientUnits="userSpaceOnUse">
<stop stop-color="#FDE801"></stop>
<stop offset="1" stop-color="#FDE801"></stop>
</linearGradient>
</defs>
      </svg>